<svg xmlns="http://www.w3.org/2000/svg" xmlns:xlink="http://www.w3.org/1999/xlink" version="1.1" x="0px" y="0px" viewBox="0 0 100 125" enable-background="new 0 0 100 100" xml:space="preserve" fill="white"><polygon points="21.4,75 21.4,72.6 21.4,67.9 11.4,67.9 11.4,72.6 11.4,75 11.4,88.6 19.9,88.6 21.4,88.6 32.1,88.6 32.1,78.6   21.4,78.6 "/><polygon points="25,11.4 11.4,11.4 11.4,18.9 11.4,21.4 11.4,32.1 21.4,32.1 21.4,21.4 25,21.4 25.5,21.4 32.1,21.4 32.1,11.4   25.5,11.4 "/><polygon points="80.3,11.4 78.6,11.4 67.9,11.4 67.9,21.4 78.6,21.4 78.6,25 78.6,28.6 78.6,32.1 88.6,32.1 88.6,28.6 88.6,25   88.6,11.4 "/><polygon points="78.6,67.9 78.6,78.6 67.9,78.6 67.9,88.6 78.6,88.6 81.3,88.6 88.6,88.6 88.6,81.4 88.6,78.6 88.6,67.9 "/></svg>